<svg width="77" height="96" viewBox="0 0 77 96" fill="none" xmlns="http://www.w3.org/2000/svg">
    <path fill-rule="evenodd" clip-rule="evenodd" d="M51.7313 52.7561L25.6533 52.7691C18.5132 52.7417 12.7287 46.9695 12.7208 39.8443L12.6948 20.0728H29.9255V39.8436H47.3076V20.0728H64.5383V39.0095C64.5534 39.2808 64.5635 39.555 64.5635 39.8313C64.5635 46.9277 58.8296 52.6885 51.7313 52.7561ZM12.6948 16.5754H64.5383V1.06345H12.6948V16.5754Z" fill="black"/>
    <path fill-rule="evenodd" clip-rule="evenodd" d="M51.7313 52.7561L25.6533 52.7691C18.5132 52.7417 12.7287 46.9695 12.7208 39.8443L12.6948 20.0728H29.9255V39.8436H47.3076V20.0728H64.5383V39.0095C64.5534 39.2808 64.5635 39.555 64.5635 39.8313C64.5635 46.9277 58.8296 52.6885 51.7313 52.7561ZM12.6948 16.5754H64.5383V1.06345H12.6948V16.5754Z" stroke="black" stroke-width="0.5"/>
    <path fill-rule="evenodd" clip-rule="evenodd" d="M20.6733 61.6575L18.4114 66.5346H22.9815L20.6733 61.6575ZM19.0658 56.235H22.278L30.1116 72.7883H25.9397L24.4022 69.5362H17.0217L15.5159 72.7883H11.3657L19.0658 56.235Z" fill="black"/>
    <path fill-rule="evenodd" clip-rule="evenodd" d="M57.1889 57.1168V61.1519C55.1087 60.0775 53.2883 59.5392 51.727 59.5392C50.1656 59.5392 48.9152 60.0019 47.9765 60.9266C47.04 61.8499 46.5724 63.0942 46.5724 64.658C46.5724 66.1354 47.0652 67.3199 48.0515 68.2051C49.0364 69.0946 50.3539 69.5364 52.004 69.5364C53.4485 69.5364 55.1773 69.037 57.1889 68.0367V72.0451C54.9327 72.6921 53.0553 73.0166 51.5509 73.0166C48.965 73.0166 46.7672 72.1984 44.962 70.5634C43.1553 68.9305 42.252 66.9349 42.252 64.5824C42.252 62.1846 43.1719 60.1602 45.0125 58.4993C46.8545 56.8391 49.0898 56.0079 51.727 56.0079C53.4261 56.0079 55.2465 56.3792 57.1889 57.1168Z" fill="black"/>
    <path fill-rule="evenodd" clip-rule="evenodd" d="M67.3906 61.6575L65.1287 66.5346H69.6981L67.3906 61.6575ZM65.7824 56.235H68.9946L76.8281 72.7883H72.6563L71.1187 69.5362H63.739L62.2332 72.7883H58.083L65.7824 56.235Z" fill="black"/>
    <path fill-rule="evenodd" clip-rule="evenodd" d="M43.8227 71.6116C43.0219 70.8877 42.4107 70.0867 41.9634 69.2217H36.0274V56.235H31.9126V72.7883H45.4397C44.8711 72.4594 44.3293 72.0729 43.8227 71.6116Z" fill="black"/>
    <path fill-rule="evenodd" clip-rule="evenodd" d="M12.776 56.2348H0V59.7546H4.37963V72.7881H8.52261V59.7546H12.763L12.776 56.2348Z" fill="black"/>
    <path fill-rule="evenodd" clip-rule="evenodd" d="M4.48975 76.2302H6.22428V80.7122C6.22428 81.1289 6.35271 81.4628 6.60957 81.7161C6.86644 81.9694 7.20483 82.0953 7.62331 82.0953C8.10384 82.0953 8.47687 81.9687 8.74239 81.7132C9.00719 81.4592 9.13995 81.0993 9.13995 80.6337V76.2302H10.8687V80.9741C10.8687 81.3908 10.7482 81.8226 10.508 82.2716C10.2677 82.72 9.89755 83.0633 9.39825 83.3007C8.89824 83.5397 8.33978 83.6584 7.72216 83.6584C6.6038 83.6584 5.78488 83.3785 5.26682 82.8186C4.74805 82.2587 4.48975 81.67 4.48975 81.0526V76.2302Z" fill="black"/>
    <path fill-rule="evenodd" clip-rule="evenodd" d="M17.8417 76.2302H19.564V83.5584H17.8496L14.1172 78.8145V83.5584H12.3574V76.2302H14.0977L17.8417 80.9403V76.2302Z" fill="black"/>
    <mask id="mask0_11_1031" style="mask-type:luminance" maskUnits="userSpaceOnUse" x="0" y="1" width="77" height="95">
    <path d="M0 96H77V1H0V96Z" fill="white"/>
    </mask>
    <g mask="url(#mask0_11_1031)">
    <path fill-rule="evenodd" clip-rule="evenodd" d="M20.9902 83.5581H22.7493V76.2299H20.9902V83.5581Z" fill="black"/>
    </g>
    <mask id="mask1_11_1031" style="mask-type:luminance" maskUnits="userSpaceOnUse" x="0" y="1" width="77" height="95">
    <path d="M0 96H77V1H0V96Z" fill="white"/>
    </mask>
    <g mask="url(#mask1_11_1031)">
    <path fill-rule="evenodd" clip-rule="evenodd" d="M23.5859 76.2302H25.3667L27.4309 81.1029L29.4988 76.2302H31.2824L28.1921 83.5584H26.6647L23.5859 76.2302Z" fill="black"/>
    </g>
    <mask id="mask2_11_1031" style="mask-type:luminance" maskUnits="userSpaceOnUse" x="0" y="1" width="77" height="95">
    <path d="M0 96H77V1H0V96Z" fill="white"/>
    </mask>
    <g mask="url(#mask2_11_1031)">
    <path fill-rule="evenodd" clip-rule="evenodd" d="M32.2246 76.2302H36.8193V77.6818H33.9837V79.1606H36.8193V80.5891H33.9837V82.1068H36.8193V83.5584H32.2246V76.2302Z" fill="black"/>
    </g>
    <mask id="mask3_11_1031" style="mask-type:luminance" maskUnits="userSpaceOnUse" x="0" y="1" width="77" height="95">
    <path d="M0 96H77V1H0V96Z" fill="white"/>
    </mask>
    <g mask="url(#mask3_11_1031)">
    <path fill-rule="evenodd" clip-rule="evenodd" d="M39.9371 77.536V79.4445H40.3173C41.2373 79.4445 41.6962 79.1084 41.6962 78.4348C41.6962 78.1592 41.5764 77.9405 41.3368 77.7793C41.0987 77.6173 40.7661 77.536 40.3426 77.536H39.9371ZM38.165 76.2306H40.8541C41.6709 76.2306 42.3181 76.4242 42.7929 76.8106C43.2676 77.1971 43.5057 77.7202 43.5057 78.378C43.5057 78.7529 43.3968 79.1437 43.1789 79.5496C42.9603 79.9547 42.5591 80.2728 41.9732 80.5031L44.2576 83.558H42.2366L40.124 80.7233H39.9241V83.558H38.165V76.2306Z" fill="black"/>
    </g>
    <mask id="mask4_11_1031" style="mask-type:luminance" maskUnits="userSpaceOnUse" x="0" y="1" width="77" height="95">
    <path d="M0 96H77V1H0V96Z" fill="white"/>
    </mask>
    <g mask="url(#mask4_11_1031)">
    <path fill-rule="evenodd" clip-rule="evenodd" d="M50.061 76.8944L48.9672 77.9717C48.3914 77.6665 47.9765 77.5133 47.7247 77.5133C47.5285 77.5133 47.3611 77.5795 47.2197 77.7119C47.079 77.8436 47.009 78.0012 47.009 78.184C47.009 78.5445 47.3733 78.8576 48.1035 79.1217C48.6375 79.326 49.0422 79.511 49.3157 79.6765C49.5891 79.8427 49.8186 80.0716 50.0018 80.3652C50.1866 80.6595 50.2796 80.9783 50.2796 81.3195C50.2796 81.9491 49.9961 82.4961 49.4311 82.9617C48.8647 83.4258 48.1966 83.6583 47.426 83.6583C46.5811 83.6583 45.7456 83.3006 44.9209 82.5867L46.0768 81.3763C46.5948 81.8563 47.079 82.0959 47.5314 82.0959C47.7428 82.0959 47.9455 82.011 48.1403 81.8426C48.3344 81.6742 48.4318 81.4972 48.4318 81.3115C48.4318 80.9287 47.9823 80.5919 47.0833 80.2997C46.5696 80.132 46.2052 79.9744 45.9895 79.8269C45.7745 79.6801 45.5934 79.4664 45.4462 79.1857C45.2983 78.905 45.2254 78.6172 45.2254 78.3229C45.2254 77.6723 45.4613 77.1441 45.9339 76.7382C46.4065 76.333 47.0227 76.1301 47.7868 76.1301C48.6901 76.1301 49.4477 76.3849 50.061 76.8944Z" fill="black"/>
    </g>
    <mask id="mask5_11_1031" style="mask-type:luminance" maskUnits="userSpaceOnUse" x="0" y="1" width="77" height="95">
    <path d="M0 96H77V1H0V96Z" fill="white"/>
    </mask>
    <g mask="url(#mask5_11_1031)">
    <path fill-rule="evenodd" clip-rule="evenodd" d="M51.3267 83.5581H53.0865V76.2299H51.3267V83.5581Z" fill="black"/>
    </g>
    <mask id="mask6_11_1031" style="mask-type:luminance" maskUnits="userSpaceOnUse" x="0" y="1" width="77" height="95">
    <path d="M0 96H77V1H0V96Z" fill="white"/>
    </mask>
    <g mask="url(#mask6_11_1031)">
    <path fill-rule="evenodd" clip-rule="evenodd" d="M56.328 77.6147V82.1406H57.025C57.7458 82.1406 58.3381 81.9635 58.8028 81.6109C59.2667 81.2568 59.4991 80.6675 59.4991 79.8413C59.4991 79.3613 59.3872 78.936 59.1636 78.5661C58.9392 78.1962 58.6152 77.9451 58.1902 77.8126C57.7652 77.6809 57.3605 77.6147 56.9745 77.6147H56.328ZM54.5566 76.2301H57.3417C58.5315 76.2301 59.489 76.5676 60.2141 77.2405C60.9392 77.9141 61.3021 78.8007 61.3021 79.9032C61.3021 81.0078 60.9277 81.893 60.1802 82.5594C59.432 83.2251 58.4363 83.5583 57.1924 83.5583H54.5566V76.2301Z" fill="black"/>
    </g>
    <mask id="mask7_11_1031" style="mask-type:luminance" maskUnits="userSpaceOnUse" x="0" y="1" width="77" height="95">
    <path d="M0 96H77V1H0V96Z" fill="white"/>
    </mask>
    <g mask="url(#mask7_11_1031)">
    <path fill-rule="evenodd" clip-rule="evenodd" d="M65.1749 78.6303L64.2153 80.7899H66.1555L65.1749 78.6303ZM64.4945 76.2302H65.8568L69.1823 83.5584H67.4117L66.7587 82.1184H63.6266L62.9851 83.5584H61.2246L64.4945 76.2302Z" fill="black"/>
    </g>
    <mask id="mask8_11_1031" style="mask-type:luminance" maskUnits="userSpaceOnUse" x="0" y="1" width="77" height="95">
    <path d="M0 96H77V1H0V96Z" fill="white"/>
    </mask>
    <g mask="url(#mask8_11_1031)">
    <path fill-rule="evenodd" clip-rule="evenodd" d="M72.0262 77.6147V82.1406H72.7232C73.444 82.1406 74.0364 81.9635 74.501 81.6109C74.965 81.2568 75.1973 80.6675 75.1973 79.8413C75.1973 79.3613 75.0855 78.936 74.8618 78.5661C74.6374 78.1962 74.3134 77.9451 73.8885 77.8126C73.4635 77.6809 73.0587 77.6147 72.6727 77.6147H72.0262ZM70.2549 76.2301H73.04C74.2297 76.2301 75.1872 76.5676 75.9123 77.2405C76.6375 77.9141 77.0004 78.8007 77.0004 79.9032C77.0004 81.0078 76.6259 81.893 75.8784 82.5594C75.1302 83.2251 74.1345 83.5583 72.8906 83.5583H70.2549V76.2301Z" fill="black"/>
    </g>
    <mask id="mask9_11_1031" style="mask-type:luminance" maskUnits="userSpaceOnUse" x="0" y="1" width="77" height="95">
    <path d="M0 96H77V1H0V96Z" fill="white"/>
    </mask>
    <g mask="url(#mask9_11_1031)">
    <path fill-rule="evenodd" clip-rule="evenodd" d="M33.0774 89.5303V90.5313C32.3775 90.1888 31.7339 90.0182 31.1459 90.0182C30.3919 90.0182 29.7562 90.2615 29.2403 90.7465C28.7237 91.2323 28.4654 91.8288 28.4654 92.5363C28.4654 93.2573 28.7302 93.859 29.2584 94.3418C29.7858 94.8233 30.4474 95.0644 31.2433 95.0644C31.8205 95.0644 32.4316 94.883 33.0774 94.521V95.5328C32.4901 95.8437 31.853 95.9999 31.1668 95.9999C30.161 95.9999 29.3017 95.6609 28.5881 94.9816C27.8745 94.303 27.5181 93.484 27.5181 92.5262C27.5181 91.5849 27.8687 90.7789 28.57 90.1089C29.2721 89.4382 30.1163 89.1028 31.1055 89.1028C31.7404 89.1028 32.3984 89.2453 33.0774 89.5303Z" fill="black"/>
    </g>
    <mask id="mask10_11_1031" style="mask-type:luminance" maskUnits="userSpaceOnUse" x="0" y="1" width="77" height="95">
    <path d="M0 96H77V1H0V96Z" fill="white"/>
    </mask>
    <g mask="url(#mask10_11_1031)">
    <path fill-rule="evenodd" clip-rule="evenodd" d="M34.0581 89.3062H34.9449V91.7968H38.0481V89.3062H38.9248V95.7815H38.0481V92.6712H34.9449V95.7815H34.0581V89.3062Z" fill="black"/>
    </g>
    <mask id="mask11_11_1031" style="mask-type:luminance" maskUnits="userSpaceOnUse" x="0" y="1" width="77" height="95">
    <path d="M0 96H77V1H0V96Z" fill="white"/>
    </mask>
    <g mask="url(#mask11_11_1031)">
    <path fill-rule="evenodd" clip-rule="evenodd" d="M40.2109 95.7812H41.0876V89.3059H40.2109V95.7812Z" fill="black"/>
    </g>
    <mask id="mask12_11_1031" style="mask-type:luminance" maskUnits="userSpaceOnUse" x="0" y="1" width="77" height="95">
    <path d="M0 96H77V1H0V96Z" fill="white"/>
    </mask>
    <g mask="url(#mask12_11_1031)">
    <path fill-rule="evenodd" clip-rule="evenodd" d="M42.5371 89.3062H43.4138V94.9071H45.5285V95.7815H42.5371V89.3062Z" fill="black"/>
    </g>
    <mask id="mask13_11_1031" style="mask-type:luminance" maskUnits="userSpaceOnUse" x="0" y="1" width="77" height="95">
    <path d="M0 96H77V1H0V96Z" fill="white"/>
    </mask>
    <g mask="url(#mask13_11_1031)">
    <path fill-rule="evenodd" clip-rule="evenodd" d="M46.25 89.3062H49.8468V90.1906H47.1259V91.8076H49.8468V92.6813H47.1259V94.9071H49.8468V95.7815H46.25V89.3062Z" fill="black"/>
    </g>
    <mask id="mask14_11_1031" style="mask-type:luminance" maskUnits="userSpaceOnUse" x="0" y="1" width="77" height="95">
    <path d="M0 96H77V1H0V96Z" fill="white"/>
    </mask>
    <g mask="url(#mask14_11_1031)">
    <path fill-rule="evenodd" clip-rule="evenodd" d="M4.40869 86.0214H76.6885V85.3637H4.40869V86.0214Z" fill="black"/>
    </g>
    </svg>
    